<svg width="32" height="32" viewBox="0 0 32 32" fill="none" xmlns="http://www.w3.org/2000/svg">
<g clip-path="url(#clip0_667_24067)">
<rect width="32" height="32" rx="7" fill="#F5F0EB"/>
<path d="M12.8948 4.07185C10.1942 5.09318 8.33757 7.42763 8.25318 10.0539L8 15.5982C8 16.5466 8.84393 17.422 10.0254 17.422H10.785L9.2659 25.5926C9.01272 26.8328 10.1942 28 11.6289 28C12.9792 28 13.9919 27.0516 13.9919 25.9574V4.80137C14.0763 4.1448 13.4856 3.853 12.8948 4.07185Z" fill="#A39689"/>
<path d="M23.3064 4C22.8505 4 22.5466 4.29268 22.5466 4.73171V10.2927C22.5466 10.5122 22.3946 10.6585 22.1667 10.6585H21.6348C21.4069 10.6585 21.2549 10.5122 21.2549 10.2927V4.73171C21.2549 4.29268 20.951 4 20.4951 4C20.0392 4 19.7353 4.29268 19.7353 4.73171V10.2927C19.7353 10.5122 19.5833 10.6585 19.3554 10.6585H18.8995C18.6716 10.6585 18.5196 10.5122 18.5196 10.2927V4.73171C18.5196 4.29268 18.2157 4 17.7598 4C17.3039 4 17 4.29268 17 4.73171V11.2439C17 12.1951 17.8358 12.9268 18.7476 12.9268H19.1275L18.2917 25.8049C18.2157 26.9756 19.2034 28 20.4191 28H20.4951C21.7108 28 22.6986 26.9756 22.6226 25.8049L21.8628 12.9268H22.2427C23.2304 12.9268 23.9902 12.122 23.9902 11.2439V4.73171C24.0662 4.29268 23.6863 4 23.3064 4Z" fill="#A39689"/>
</g>
<defs>
<clipPath id="clip0_667_24067">
<rect width="32" height="32" fill="white"/>
</clipPath>
</defs>
</svg>
