<svg width="120" height="80" viewBox="0 0 120 80" fill="none" xmlns="http://www.w3.org/2000/svg">
<path d="M17.6783 58.0936C22.6335 62.253 28.1245 65.5806 34.2851 67.9376L33.2137 72.2357L33.3476 72.6516C33.4816 73.0676 34.2851 74.87 38.035 76.6724C42.7225 78.8908 50.0884 80 59.9989 80H60.2668C83.9717 80 86.9181 73.3449 87.186 72.6516L87.3199 72.2357L86.2485 67.9376C92.0073 65.4419 97.4983 62.1144 102.454 57.9549C113.837 48.2496 120.132 35.4939 119.998 21.7678C119.998 14.8354 113.302 9.01213 100.846 5.12998C90.1324 1.80243 75.8022 0 60.4007 0C48.0795 0 36.4279 1.10919 26.5174 3.32756C15.8033 5.82322 7.90165 9.42808 3.61601 13.7262C1.20534 16.2218 0 19.1334 0 22.0451C0 35.7712 6.29453 48.5269 17.6783 58.0936ZM60.1329 77.227H59.865C41.2493 77.227 36.8297 73.2062 35.8922 72.0971L36.6958 69.0468C43.9278 71.6811 51.8294 73.0676 59.865 73.0676H59.9989C68.1684 73.0676 76.204 71.6811 83.436 68.9081L84.2396 72.0971C83.57 73.0676 79.1504 77.227 60.1329 77.227ZM21.4282 8.73484C31.7405 5.54593 45.401 3.7435 59.9989 3.7435H60.4007C74.8648 3.7435 88.5252 5.54593 98.7036 8.59619C108.212 11.5078 113.837 15.5286 113.837 19.2721C113.837 19.4107 113.837 19.5494 113.837 19.688C111.293 17.1924 107.811 15.6672 104.061 15.6672C102.052 15.6672 100.043 16.0832 98.3018 16.9151C95.0876 12.201 89.7306 9.15078 83.7039 9.15078C81.1593 9.15078 78.6147 9.70537 76.338 10.8146C73.9273 8.87348 70.847 7.62565 67.6327 7.62565C63.8828 7.62565 60.4007 9.15078 57.8561 11.6464C54.2401 8.87348 49.8206 7.2097 44.9992 7.2097C39.7761 7.2097 34.8208 9.15078 30.937 12.617C29.3298 11.7851 27.4549 11.2305 25.5799 11.2305C22.3657 11.2305 19.4193 12.4783 17.1426 14.8354C15.4015 16.6378 14.1962 18.9948 13.7944 21.4905C12.4551 22.3224 11.2498 23.4315 10.1784 24.818C7.90165 23.0156 6.56239 21.2132 6.56239 19.4107C6.16061 15.8059 11.9194 11.7851 21.4282 8.73484ZM103.927 25.0953C101.248 25.0953 98.9715 27.3137 98.8376 30.0867H98.7036C98.3019 30.2253 97.7662 30.364 97.3644 30.5026C97.3644 28.7002 98.034 26.8977 99.3733 25.6499C100.579 24.4021 102.32 23.5702 104.061 23.5702C105.936 23.5702 107.677 24.4021 108.882 25.7886C108.48 26.0659 107.945 26.3432 107.543 26.6205C106.471 25.6499 105.266 25.0953 103.927 25.0953ZM104.596 27.8683C103.659 28.2842 102.721 28.7002 101.784 28.9775C102.186 28.2842 102.989 27.7296 103.927 27.7296C104.195 27.7296 104.329 27.8683 104.596 27.8683ZM103.927 20.9359C101.382 20.9359 99.1054 21.9064 97.3644 23.7088C95.6233 25.5113 94.6858 28.0069 94.6858 30.5026C94.6858 30.7799 94.6858 31.0572 94.6858 31.1958C94.0162 31.3345 93.3466 31.4731 92.677 31.7504C92.543 31.4731 92.4091 31.3345 92.2752 31.0572C92.2752 30.9185 92.2752 30.6412 92.2752 30.5026C92.2752 23.8475 97.4983 18.4402 103.927 18.3016C107.409 18.3016 110.489 19.8267 112.632 22.3224C112.23 22.8769 111.561 23.5702 110.891 24.1248C109.15 22.1837 106.739 20.9359 103.927 20.9359ZM80.3557 29.2548C77.6772 29.2548 75.2665 30.3639 73.3916 32.305C73.1237 32.5823 72.8559 32.8596 72.7219 33.1369C72.4541 32.5823 72.0523 31.8891 71.6505 31.3345C71.7845 31.1958 71.9184 31.0572 72.0523 30.9185C74.1951 28.5615 77.1415 27.3137 80.3557 27.3137C84.1057 27.3137 87.5878 29.2548 89.7306 32.1664C89.7306 32.305 89.7306 32.4437 89.7306 32.4437C89.0609 32.5823 88.3913 32.721 87.8556 32.8596C85.9806 30.6412 83.3021 29.2548 80.3557 29.2548ZM84.6414 33.2756C83.57 33.4142 82.3646 33.5529 81.2932 33.8302C81.0254 33.8302 80.7575 33.6915 80.4897 33.6915C79.82 33.6915 79.0165 33.8302 78.4808 34.1074C77.4094 34.2461 76.204 34.3847 75.1326 34.3847C75.2665 34.2461 75.4005 34.1075 75.5344 33.9688C76.8736 32.5823 78.7486 31.7504 80.6236 31.7504C81.9629 31.8891 83.436 32.4437 84.6414 33.2756ZM53.5705 31.1958C50.3563 31.1958 47.5438 32.4437 45.2671 34.662C44.3296 34.5234 43.3921 34.3847 42.5885 34.3847C45.2671 31.1958 49.1509 29.1161 53.5705 29.1161C58.2579 29.1161 62.4096 31.4731 65.0881 35.2166C64.2846 35.2166 63.3471 35.2166 62.5435 35.2166C60.2668 32.721 57.0526 31.1958 53.5705 31.1958ZM58.3918 35.2166C55.3115 35.2166 52.3652 35.078 49.4188 34.9393C50.758 34.2461 52.0973 33.9688 53.5705 33.9688C55.3115 33.8302 56.9186 34.3848 58.3918 35.2166ZM53.5705 26.3432C47.8117 26.3432 42.7225 29.3934 39.6422 33.9688C38.7047 33.8302 37.9011 33.6915 37.0976 33.6915C40.4457 27.8683 46.6063 23.9861 53.5705 23.9861C61.0704 23.9861 67.4988 28.4229 70.713 34.9393C69.7756 34.9393 68.972 35.078 68.0345 35.078C65.0881 29.8094 59.7311 26.3432 53.5705 26.3432ZM21.2943 23.5702C18.214 23.5702 15.4015 24.9567 13.5265 27.175C12.9908 26.8977 12.5891 26.6204 12.0534 26.3432C14.3301 23.7088 17.5443 21.9064 21.2943 21.9064C27.5888 21.9064 32.678 26.7591 33.4816 32.9983C32.9459 32.8596 32.4101 32.8596 31.8744 32.721C30.937 27.591 26.5174 23.5702 21.2943 23.5702ZM29.062 32.305C28.3924 32.1664 27.7227 32.0277 27.0531 31.8891C25.9817 29.6707 23.8389 28.1456 21.2943 28.1456C20.0889 28.1456 18.8836 28.5615 17.9461 29.1161C17.2765 28.8388 16.6069 28.5615 16.0711 28.4229C17.5443 27.175 19.2854 26.3432 21.2943 26.3432C24.9103 26.3432 27.9906 28.8388 29.062 32.305ZM64.0167 18.9948L63.8828 19.1334C63.615 18.5789 63.2132 18.0243 62.9453 17.4697C64.1507 16.2218 65.7578 15.6672 67.4988 15.6672C68.3024 15.6672 69.1059 15.8059 69.7756 16.0832C69.3738 16.6378 68.972 17.1924 68.5702 17.747C68.1684 17.6083 67.7667 17.6083 67.3649 17.6083C66.0256 17.6083 64.8203 18.0243 64.0167 18.9948ZM67.231 20.2426C66.6953 21.4905 66.2935 22.8769 66.0256 24.2634C65.8917 24.1248 65.7578 24.1248 65.7578 23.9861C65.6238 23.4315 65.4899 22.7383 65.2221 22.1837C65.2221 21.6291 65.4899 21.2132 65.8917 20.7972C66.1596 20.5199 66.6953 20.2426 67.231 20.2426ZM67.3649 12.8943C65.0881 12.8943 62.9453 13.7262 61.2043 15.2513C60.6686 14.5581 60.1329 14.0035 59.5972 13.4489C61.6061 11.5078 64.4185 10.3986 67.3649 10.3986C69.6416 10.3986 71.7845 11.0919 73.6594 12.3397C72.9898 12.8943 72.3202 13.4489 71.6505 14.0035C70.3113 13.3102 68.8381 12.8943 67.3649 12.8943ZM62.8114 23.4315C61.8739 22.877 60.8025 22.5997 59.7311 22.1837C56.9186 16.4991 51.2937 12.617 44.7314 12.617C40.3118 12.617 36.0262 14.4194 32.8119 17.747C31.6066 18.9948 30.5352 20.5199 29.7316 22.1837C29.062 21.7678 28.3924 21.3518 27.5888 20.9359C28.5263 19.1334 29.5977 17.4697 31.0709 16.0832C34.6869 12.3397 39.5082 10.26 44.5974 10.26C53.0348 9.98267 60.1329 15.6672 62.8114 23.4315ZM27.5888 16.0832C26.7852 15.8059 26.1156 15.6672 25.3121 15.6672C23.1692 15.6672 21.1603 16.4991 19.6872 18.0243C19.2854 18.4402 18.8836 18.9948 18.4818 19.5494C17.8122 19.688 17.1426 19.8267 16.4729 20.104C16.8747 18.9948 17.6783 17.8856 18.4818 16.9151C20.2229 15.1127 22.6335 14.0035 25.1781 14.0035C26.3835 14.0035 27.4549 14.2808 28.5263 14.6967C28.2584 15.1127 27.8567 15.5286 27.5888 16.0832ZM25.9817 18.4402C25.7138 18.8562 25.446 19.4107 25.1781 19.8267C24.2406 19.5494 23.1692 19.4107 22.2318 19.2721C23.1692 18.5789 24.1067 18.3016 25.3121 18.3016C25.446 18.3016 25.7138 18.4402 25.9817 18.4402ZM31.7405 23.8475C32.4101 22.3224 33.3476 20.7972 34.553 19.5494C37.2315 16.7764 40.8475 15.2513 44.5974 15.2513C49.4188 15.2513 53.5705 17.747 56.1151 21.4905C55.1776 21.3518 54.374 21.3518 53.4366 21.3518C53.1687 21.3518 52.9009 21.3518 52.633 21.3518C50.4902 19.2721 47.8117 18.0243 44.5974 18.0243C39.5082 18.0243 35.0887 21.4905 33.6155 26.3432C33.0798 25.3726 32.5441 24.5407 31.7405 23.8475ZM44.7314 20.6586C46.3385 20.6586 47.6777 21.0745 49.017 21.7678C43.6599 23.0156 38.9725 26.2045 35.7583 30.7799C35.7583 30.5026 35.7583 30.2253 35.7583 29.948C35.7583 24.818 39.7761 20.6586 44.7314 20.6586ZM70.5791 28.5615C70.4452 28.7002 70.3113 28.7002 70.3113 28.8388L70.1773 28.9775C69.6416 28.2842 68.972 27.7296 68.4363 27.0364C68.5702 23.0156 70.0434 19.2721 72.8559 16.3605C75.6683 13.3102 79.5522 11.6464 83.7039 11.6464C88.7931 11.6464 93.2127 14.1421 96.0251 18.0243C95.3555 18.4402 94.8198 18.9948 94.2841 19.5494C91.8734 16.2218 88.1235 14.0035 83.8378 14.0035C80.3557 14.0035 77.1415 15.3899 74.5969 18.0243C72.1862 20.5199 70.847 23.9861 70.847 27.591C70.5791 28.0069 70.5791 28.2842 70.5791 28.5615ZM81.0254 24.5407C81.695 23.9861 82.6325 23.5702 83.57 23.5702C85.311 23.5702 86.7842 24.6794 87.3199 26.3432C85.4449 25.3726 83.3021 24.6794 81.0254 24.5407ZM83.57 20.9359C81.8289 20.9359 80.2218 21.6291 79.0165 22.8769C78.4808 23.4315 78.079 24.1248 77.6772 24.818C76.0701 25.0953 74.5969 25.7886 73.2576 26.6205C73.5255 24.1248 74.5969 21.9064 76.204 20.104C78.2129 18.0243 80.7575 16.9151 83.57 16.9151C87.186 16.9151 90.5341 18.8562 92.2752 21.9064C91.2038 23.4315 90.4002 25.234 89.9984 27.0364C89.7306 23.5702 86.9181 20.9359 83.57 20.9359ZM3.88386 17.6083C3.74994 18.3016 3.61601 18.8562 3.61601 19.5494C3.61601 24.818 9.50876 29.3934 20.6246 32.8596C31.0709 36.0485 44.8653 37.851 59.5972 37.851H59.9989C74.8648 37.851 88.7931 36.0485 99.2393 32.721C110.355 29.2548 116.248 24.6794 116.248 19.2721C116.248 18.5789 116.114 18.0243 115.98 17.331C116.918 18.9948 117.319 20.3813 117.319 21.7678C117.319 34.662 111.427 46.7244 100.713 55.8752C89.8645 65.026 75.4005 70.156 59.9989 70.156H59.865C44.4635 70.156 30.1334 65.1646 19.2854 56.0139C8.57128 47.0017 2.5446 34.9393 2.5446 22.0451C2.5446 20.5199 2.94638 19.1334 3.88386 17.6083Z" fill="rgba(0, 0, 0, 0.25)"/>
</svg>
